<svg t="1535940073083" class="icon" viewBox="0 0 1024 1024" version="1.1" xmlns="http://www.w3.org/2000/svg" p-id="1925" height="128" width="128"><path d="M512 512m-512 0a512 512 0 1 0 1024 0 512 512 0 1 0-1024 0Z" fill="#8a8a8a" p-id="1926"></path><path d="M512 512m-398.222222 0a398.222222 398.222222 0 1 0 796.444444 0 398.222222 398.222222 0 1 0-796.444444 0Z" fill="#e6e6e6" p-id="1927" data-spm-anchor-id="a313x.7781069.0.i0" class="selected"></path><path d="M722.62163 310.859852c10.714074 10.733037 10.714074 29.50637 0 40.239407L360.580741 713.140148c-10.733037 10.714074-29.50637 10.714074-40.239408 0-10.714074-10.733037-10.714074-29.50637 0-40.239407l362.040889-362.040889c10.733037-10.714074 29.50637-10.714074 40.239408 0z" fill="#8a8a8a" p-id="1928" data-spm-anchor-id="a313x.7781069.0.i3" class="selected"></path><path d="M320.341333 310.859852c10.733037-10.714074 29.50637-10.714074 40.239408 0l362.040889 362.040889c10.714074 10.733037 10.714074 29.50637 0 40.239407-10.733037 10.714074-29.50637 10.714074-40.239408 0L320.341333 351.099259c-10.714074-10.733037-10.714074-29.50637 0-40.239407z" fill="#8a8a8a" p-id="1929" data-spm-anchor-id="a313x.7781069.0.i2" class="selected"></path></svg>